<svg width="163" height="93" viewBox="0 0 163 93" fill="none" xmlns="http://www.w3.org/2000/svg">
<path d="M159.912 30.4617C161.154 29.717 163 30.4137 163 31.5908V80.7188C163 87.085 156.155 92.25 147.719 92.25H15.2812C6.84473 92.25 0 87.085 0 80.7188V31.6148C0 30.4137 1.81465 29.741 3.08809 30.4857C10.2193 34.6658 19.6746 39.975 52.1473 57.7764C58.8647 61.476 70.1982 69.2596 81.5 69.2115C92.8654 69.2836 104.422 61.3318 110.885 57.7764C143.357 39.975 152.781 34.6418 159.912 30.4617ZM81.5 61.5C88.8859 61.5961 99.5191 54.4852 104.868 51.5543C147.114 28.4197 150.329 26.4018 160.071 20.6361C161.918 19.5551 163 17.8734 163 16.0957V11.5312C163 5.16504 156.155 0 147.719 0H15.2812C6.84473 0 0 5.16504 0 11.5312V16.0957C0 17.8734 1.08242 19.5311 2.92891 20.6361C12.6707 26.3777 15.8861 28.4197 58.1324 51.5543C63.4809 54.4852 74.1141 61.5961 81.5 61.5Z" fill="white"/>
</svg>
