<svg width="121" height="125" viewBox="0 0 121 125" fill="none" xmlns="http://www.w3.org/2000/svg">
<path d="M116.604 6.00837L92.0268 0.149121C89.3563 -0.485631 86.615 0.954768 85.5279 3.5426L74.1843 30.8858C73.1918 33.2783 73.8535 36.0859 75.815 37.7216L90.1362 49.8307C81.6285 68.5559 66.7638 84.1317 48.2597 93.0915L36.538 78.2969C34.931 76.2706 32.237 75.587 29.921 76.6123L3.45278 88.3308C0.924123 89.4783 -0.470185 92.3103 0.144255 95.069L5.81602 120.459C6.40682 123.096 8.67553 125 11.346 125C71.8684 125 121 74.3419 121 11.7211C121 8.98683 119.18 6.61871 116.604 6.00837Z" fill="white"/>
</svg>
