<svg width="241" height="228" viewBox="0 0 241 228" fill="none" xmlns="http://www.w3.org/2000/svg">
<path d="M232.245 10.9593L183.293 0.271997C177.974 -0.885791 172.514 1.7415 170.349 6.46171L147.756 56.3357C145.779 60.6996 147.097 65.8206 151.003 68.8041L179.527 90.8912C162.582 125.046 132.976 153.456 96.1205 169.799L72.7741 142.814C69.5734 139.118 64.2075 137.871 59.5947 139.741L6.87703 161.115C1.84061 163.208 -0.936484 168.374 0.287319 173.406L11.584 219.717C12.7607 224.527 17.2794 228 22.5982 228C143.143 228 241 135.6 241 21.3794C241 16.392 237.376 12.0725 232.245 10.9593Z" fill="#F8B22A"/>
</svg>
